<?xml version="1.0" encoding="UTF-8"?>
<svg id="Layer_2" xmlns="http://www.w3.org/2000/svg" viewBox="0 0 76.48 53">
  <defs>
    <style>
      .cls-1 {
        stroke: #647f50;
      }

      .cls-1, .cls-2 {
        fill: #f5f9ee;
        stroke-miterlimit: 10;
        stroke-width: 2px;
      }

      .cls-2 {
        stroke: #516640;
      }
    </style>
  </defs>
  <g id="Layer_1-2" data-name="Layer_1">
    <g>
      <g>
        <path class="cls-2" d="M41.37,35.91c2.77,0,5.08,1.96,7.39,1.96,5.55,0,11.09-14.79,11.09-22.59-.13-4.98-4.26-8.93-9.24-8.84-4.1,0-7.39,2.66-9.24,3.7-1.85-1.04-5.14-3.7-9.24-3.7-4.99-.1-9.12,3.85-9.24,8.84,0,7.8,5.55,22.59,11.09,22.59,2.31,0,4.62-1.96,7.39-1.96Z"/>
        <path class="cls-2" d="M37.68.89c1.85.92,3.7,3.7,3.7,9.24"/>
      </g>
      <g>
        <path class="cls-1" d="M38.51,43.41l25.88-25.88"/>
        <path class="cls-1" d="M41.22,25.9l2.83-2.83,2.83,2.83c2.51,2.52,2.51,6.61,0,9.13l-2.83,2.83-2.83-2.83c-2.51-2.52-2.51-6.61,0-9.13Z"/>
        <path class="cls-1" d="M48.62,18.51l2.83-2.83,2.83,2.83c2.51,2.52,2.51,6.61,0,9.13l-2.83,2.83-2.83-2.83c-2.51-2.52-2.51-6.61,0-9.13Z"/>
        <path class="cls-1" d="M56.01,11.12l2.83-2.83,2.83,2.83c2.51,2.52,2.51,6.61,0,9.13l-2.83,2.83-2.83-2.83c-2.51-2.52-2.51-6.61,0-9.13Z"/>
        <path class="cls-1" d="M71.78,6.44h3.7v3.7c0,4.08-3.31,7.39-7.39,7.39h-3.7v-3.7c0-4.08,3.31-7.39,7.39-7.39Z"/>
        <path class="cls-1" d="M56.01,35.04l2.83,2.83-2.83,2.83c-2.52,2.51-6.61,2.51-9.13,0l-2.83-2.83,2.83-2.83c2.52-2.51,6.61-2.51,9.13,0Z"/>
        <path class="cls-1" d="M63.41,27.64l2.83,2.83-2.83,2.83c-2.52,2.51-6.61,2.51-9.13,0l-2.83-2.83,2.83-2.83c2.52-2.51,6.61-2.51,9.13,0Z"/>
        <path class="cls-1" d="M70.8,20.25l2.83,2.83-2.83,2.83c-2.52,2.51-6.61,2.51-9.13,0l-2.83-2.83,2.83-2.83c2.52-2.51,6.61-2.51,9.13,0Z"/>
      </g>
      <g>
        <path class="cls-1" d="M25.9,27.83h0c-3.25-3.25-8.52-3.24-11.77,0-3.25,3.25-3.24,8.52,0,11.77,5.29,5.29,23.53,11.76,23.53,11.76,0,0-6.47-18.23-11.78-23.53ZM29.69,33.35l-3.79,3.77M18.06,34.43l-4.55,4.55"/>
        <path class="cls-1" d="M7.67,31.58c4.01,0,6.47-3.7,6.47-3.7,0,0-3.44-3.7-6.47-3.7-4.01,0-6.47,3.7-6.47,3.7,0,0,2.46,3.7,6.47,3.7Z"/>
        <path class="cls-1" d="M10.44,21.41c0,3.07,3.7,6.47,3.7,6.47,0,0,3.7-2.46,3.7-6.47,0-4.01-3.7-6.47-3.7-6.47,0,0-3.7,2.46-3.7,6.47Z"/>
      </g>
    </g>
  </g>
</svg>